# xmcd CD database file
#
# Track frame offsets:
#	150
#	19594
#	39514
#	57670
#	78020
#	94859
#	120079
#	140342
#	157101
#	177932
#	192667
#	211937
#	233134
#	252199
#	270847
#	290101
#
# Disc length: 4118 seconds
#
# Revision: 0
# Processed by: cddbd v1.5.2PL0 Copyright (c) Steve Scherf et al.
# Submitted via: CDex 1.51
#
DISCID=d9101410
DTITLE=Club Fiera - Bachata con Amor
DYEAR=2009
DGENRE=Merengue
TTITLE0=Hasta el Fin
TTITLE1=Chiquilla Chiquita
TTITLE2=Maestra
TTITLE3=Un Beso
TTITLE4=No Es Una Novela
TTITLE5=Amigo Veneno
TTITLE6=Extranaras
TTITLE7=Lamento Boliviano
TTITLE8=Lioraras
TTITLE9=Mi Estrella Mi Lucero
TTITLE10=Obsesion
TTITLE11=Hay Amores
TTITLE12=Zacaras Ferreira
TTITLE13=Me Voy
TTITLE14=Burbujas De Amor
TTITLE15=Si Tu No Estas
EXTD=YEAR: 2009
EXTT0=
EXTT1=
EXTT2=
EXTT3=
EXTT4=
EXTT5=
EXTT6=
EXTT7=
EXTT8=
EXTT9=
EXTT10=
EXTT11=
EXTT12=
EXTT13=
EXTT14=
EXTT15=
PLAYORDER=
